<?xml version="1.0" encoding="utf-8"?>
<!-- Generator: Adobe Illustrator 16.0.0, SVG Export Plug-In . SVG Version: 6.00 Build 0)  -->
<!DOCTYPE svg PUBLIC "-//W3C//DTD SVG 1.1//EN" "http://www.w3.org/Graphics/SVG/1.1/DTD/svg11.dtd">
<svg version="1.1" id="Capa_1" xmlns="http://www.w3.org/2000/svg" xmlns:xlink="http://www.w3.org/1999/xlink" x="0px" y="0px"
	 width="400px" height="400px" viewBox="0 0 400 400" enable-background="new 0 0 400 400" xml:space="preserve">
<g>
	<path fill="#201813" d="M320.603,309.604H85.77c-34.11,0-61.865-28.462-61.865-63.443V111.924c0-34.974,27.755-63.43,61.865-63.43
		h234.833c34.104,0,61.87,28.456,61.87,63.43v134.237C382.473,281.143,354.707,309.604,320.603,309.604z M85.77,67.085
		c-25.549,0-46.333,20.115-46.333,44.839v134.237c0,24.724,20.785,44.854,46.333,44.854h234.833
		c25.55,0,46.333-20.131,46.333-44.854V111.924c0-24.724-20.783-44.839-46.333-44.839H85.77z"/>
</g>
<g>
	<polygon fill="#201813" points="107.127,390.344 96.146,377.201 164.034,295.886 175.018,309.042 	"/>
</g>
<g>
	<polygon fill="#201813" points="293.645,391.09 225.751,309.778 236.719,296.641 304.62,377.936 	"/>
</g>
<g>
	<rect x="192.283" y="298.089" fill="#201813" width="15.528" height="100.836"/>
</g>
<g>
	<rect x="31.668" y="19.043" fill="#201813" width="343.041" height="23.8"/>
</g>
<g>
	<path fill="#201813" d="M220.985,18.574c0,9.652-6.532,17.487-14.613,17.487c-8.06,0-14.604-7.834-14.604-17.487
		c0-9.664,6.544-17.499,14.604-17.499C214.453,1.076,220.985,8.911,220.985,18.574z"/>
</g>
</svg>
