<?xml version="1.0" encoding="utf-8"?>
<!-- Generator: Adobe Illustrator 14.0.0, SVG Export Plug-In . SVG Version: 6.00 Build 43363)  -->
<!DOCTYPE svg PUBLIC "-//W3C//DTD SVG 1.1//EN" "http://www.w3.org/Graphics/SVG/1.1/DTD/svg11.dtd">
<svg version="1.1" id="Capa_1" xmlns="http://www.w3.org/2000/svg" xmlns:xlink="http://www.w3.org/1999/xlink" x="0px" y="0px"
	 width="340.16px" height="340.16px" viewBox="0 0 340.16 340.16" enable-background="new 0 0 340.16 340.16" xml:space="preserve">
<linearGradient id="path3691_1_" gradientUnits="userSpaceOnUse" x1="433.2354" y1="-30.8101" x2="433.2354" y2="179.3444" gradientTransform="matrix(0.8699 0 0 -0.8699 -201.3105 299.0173)">
	<stop  offset="0" style="stop-color:#7FCBDB"/>
	<stop  offset="1" style="stop-color:#26AFC3"/>
</linearGradient>
<path id="path3691" sodipodi:nodetypes="csccsccsccscc" fill="url(#path3691_1_)" d="M85.022,37.829
	c-14.221-0.002-28.354,5.852-38.408,15.906C36.559,63.792,30.706,77.925,30.708,92.144v179.361
	c-0.002,14.221,5.852,28.354,15.906,38.408s24.188,15.908,38.408,15.906h181.074c14.219,0.002,28.352-5.852,38.406-15.906
	c10.057-10.055,15.908-24.188,15.908-38.408V92.144c0-14.219-5.852-28.352-15.908-38.408
	c-10.055-10.055-24.188-15.906-38.406-15.906H85.022L85.022,37.829z"/>
<path id="path3693" sodipodi:nodetypes="csccsccsccscc" opacity="0.4634" fill="none" stroke="#FFFFFF" stroke-width="12.495" enable-background="new    " d="
	M92.676,50.005c-13.018-0.002-25.955,5.357-35.16,14.562c-9.203,9.205-14.562,22.143-14.561,35.16v164.195
	c-0.002,13.018,5.357,25.955,14.561,35.16c9.205,9.205,22.143,14.562,35.16,14.561h165.763c13.018,0.002,25.955-5.355,35.16-14.561
	s14.562-22.143,14.562-35.16V99.728c0-13.018-5.357-25.955-14.562-35.16s-22.143-14.562-35.16-14.562H92.676L92.676,50.005z"/>
<path id="path3717" sodipodi:nodetypes="cssssssssssssssssccssssscc" fill="#FFFFFF" d="M151.131,290.907
	c-6.012-0.658-13.064-2.385-19.119-4.676c-2.945-1.113-5.469-2.162-5.609-2.33c-0.139-0.168-1.516-0.977-3.059-1.797
	c-13.502-7.188-24.535-21.133-29.521-37.314c-3.195-10.369-3.109-8.316-3.109-73.402c0-62.652-0.092-59.854,2.223-67.004
	c2.16-6.674,6.863-13.498,12.658-18.365c3.799-3.191,11.186-7.043,16.221-8.461c4.951-1.393,16.197-1.297,21.537,0.186
	c4.26,1.182,11.936,4.92,14.408,7.02c10.816,9.18,15.693,18.572,16.406,31.602c0.176,3.203,0.549,5.77,0.873,5.982
	c0.311,0.207,10.889,0.379,23.508,0.385c28.303,0.01,30.479,0.283,39.77,5.018c3.518,1.791,6.113,3.711,9.621,7.121
	c17.566,17.062,16.324,46.445-2.623,62.074c-5.785,4.77-11.684,7.367-20.949,9.217c-2.846,1.07,1.748,2.117,2.861,2.346
	c4.869,0.98,15.117,5.461,21.615,12.139c3.695,3.799,4.82,5.377,6.971,9.777c3.568,7.297,4.402,10.898,4.402,19.014
	c0,7.516-0.799,11.402-3.592,17.508c-5.918,12.932-17.953,21.916-32.17,24.014C220.002,291.614,157.186,291.571,151.131,290.907
	L151.131,290.907L151.131,290.907z"/>
<linearGradient id="path3719_1_" gradientUnits="userSpaceOnUse" x1="-373.7109" y1="30.6694" x2="-375.4354" y2="233.8882" gradientTransform="matrix(0.8699 0 0 -0.8699 501.0815 299.0173)">
	<stop  offset="0" style="stop-color:#71C9E4"/>
	<stop  offset="1" style="stop-color:#CCE9F2"/>
</linearGradient>
<path id="path3719" sodipodi:nodetypes="cccssssccccczccccccczssssssscscc" fill="url(#path3719_1_)" d="M132.92,95.868
	c-3.66-0.01-7.375,0.99-10.846,2.664c-5.51,2.734-8.588,7.098-10.928,12.531c-0.951,2.549-1.066,4.291-1.305,23.135
	c-0.838,65.855-0.906,91.732-0.299,96.041c3.125,22.219,17.266,37.344,38.928,41.646c1.162,0.23,4.367,0.391,10.572,0.496
	c6.207,0.107,15.412,0.162,28.572,0.184l31.469,0.072c0,0,3.211,0.127,4.496-0.115c7.387-1.828,12.619-6.826,16.229-13.359
	c5.408-11.467,0.537-24.818-11.172-30.637c0,0-1.947-1.16-4.078-1.664c-2.129-0.504-8.572-0.385-8.572-0.385l-8.574-0.01
	l-17.146-0.02l-34.292-0.041l0.164-38.738l21.937-0.055l34.252-0.244c5.719-0.012,12.176-0.359,15.852-2.023
	c3.678-1.664,8.324-5.213,10.625-9.748c3.617-7.125,3.514-14.932-0.244-21.502c-1.854-3.24-6.191-7.662-8.861-9.025
	c-5.131-2.617-3.871-2.533-40.205-2.664c-18.721-0.066-34.134-0.234-34.253-0.354c-0.117-0.117-0.293-6.402-0.406-13.973
	c-0.115-7.568-0.371-14.281-0.545-14.924c-1.07-3.982-2.367-6.566-4.43-8.834c-3.01-4.141-6.836-6.395-11.988-7.803
	C136.258,96.081,134.586,95.872,132.92,95.868L132.92,95.868z"/>
<path fill="none" d="M85.022,37.829c-14.221-0.002-28.354,5.852-38.408,15.906C36.559,63.792,30.706,77.925,30.708,92.144v179.361
	c-0.002,14.221,5.852,28.354,15.906,38.408s24.188,15.908,38.408,15.906h181.074c14.219,0.002,28.352-5.852,38.408-15.906
	c10.055-10.055,15.906-24.188,15.906-38.408V92.144c0-14.219-5.852-28.352-15.906-38.408
	c-10.057-10.055-24.189-15.906-38.408-15.906H85.022L85.022,37.829z"/>
<linearGradient id="path3695_1_" gradientUnits="userSpaceOnUse" x1="530.6016" y1="357.9727" x2="473.918" y2="196.1597" gradientTransform="matrix(0.894 0 0 -0.8699 -280.5283 327.1696)">
	<stop  offset="0" style="stop-color:#FFFFFF"/>
	<stop  offset="1" style="stop-color:#FFFFFF;stop-opacity:0.6471"/>
</linearGradient>
<path id="path3695_2_" sodipodi:type="arc" sodipodi:ry="104.77346" sodipodi:rx="233.81876" sodipodi:cy="470.24246" sodipodi:cx="805.01617" opacity="0.385" fill="url(#path3695_1_)" enable-background="new    " d="
	M174.83-26.228c115.443,0,209.029,40.807,209.029,91.143s-93.586,91.143-209.029,91.143c-115.443,0-209.027-40.807-209.027-91.143"
	/>
<linearGradient id="path3695_3_" gradientUnits="userSpaceOnUse" x1="405.1641" y1="394.2842" x2="365.3819" y2="280.7193" gradientTransform="matrix(0.894 0 0 -0.8699 -280.5283 327.1696)">
	<stop  offset="0" style="stop-color:#FFFFFF"/>
	<stop  offset="1" style="stop-color:#FFFFFF;stop-opacity:0.6471"/>
</linearGradient>
<path id="path3695" sodipodi:type="arc" sodipodi:ry="104.77346" sodipodi:rx="233.81876" sodipodi:cy="470.24246" sodipodi:cx="805.01617" opacity="0.385" fill="url(#path3695_3_)" enable-background="new    " d="
	M-34.197,64.915c0-50.336,93.584-91.143,209.027-91.143"/>
<linearGradient id="path3740_1_" gradientUnits="userSpaceOnUse" x1="-411.9634" y1="214.6484" x2="-411.9634" y2="172.742" gradientTransform="matrix(0.8699 0 0 -0.8699 490.8794 290.3083)">
	<stop  offset="0" style="stop-color:#FFFFFF"/>
	<stop  offset="1" style="stop-color:#FFFFFF;stop-opacity:0"/>
</linearGradient>
<path id="path3740" sodipodi:nodetypes="cccsccsc" opacity="0.516" fill="url(#path3740_1_)" enable-background="new    " d="
	M131.588,100.489c-9.465,0.48-16.988,8.33-16.988,17.914v19.898c0,9.896,8.02,17.916,17.914,17.916s17.914-8.02,17.914-17.916
	v-19.898c0-9.895-8.02-17.914-17.914-17.914C132.204,100.489,131.895,100.474,131.588,100.489z"/>
<linearGradient id="path3752_1_" gradientUnits="userSpaceOnUse" x1="-423.6914" y1="228.2285" x2="-423.6914" y2="210.1455" gradientTransform="matrix(0.8699 0 0 -0.8699 501.0815 299.0173)">
	<stop  offset="0" style="stop-color:#FFFFFF"/>
	<stop  offset="1" style="stop-color:#FFFFFF;stop-opacity:0"/>
</linearGradient>
<path id="path3752" opacity="0.626" fill="url(#path3752_1_)" enable-background="new    " d="M131.588,100.489
	c-9.465,0.48-16.988,8.33-16.988,17.914c0,0.713,0.027,1.404,0.107,2.094c1.055-8.891,8.633-15.795,17.807-15.795
	s16.725,6.904,17.777,15.795c0.082-0.689,0.137-1.381,0.137-2.094c0-9.895-8.02-17.914-17.914-17.914
	C132.204,100.489,131.895,100.474,131.588,100.489z"/>
<radialGradient id="path3780_1_" cx="-241.0093" cy="540.6055" r="47.0581" gradientTransform="matrix(1.2771 0 0 -0.4866 516.7998 409.7892)" gradientUnits="userSpaceOnUse">
	<stop  offset="0" style="stop-color:#FFFFFF"/>
	<stop  offset="1" style="stop-color:#FFFFFF;stop-opacity:0"/>
</radialGradient>
<path id="path3780" sodipodi:nodetypes="csccscc" opacity="0.626" fill="url(#path3780_1_)" enable-background="new    " d="
	M158.643,146.757c-10.168,0-18.43,8.234-18.43,18.404s8.262,18.43,18.43,18.43h59.718c10.17,0,18.404-8.26,18.404-18.43
	s-8.234-18.404-18.404-18.404H158.643z"/>
<linearGradient id="path3638_2_" gradientUnits="userSpaceOnUse" x1="743.1836" y1="301.4814" x2="743.1836" y2="301.4814" gradientTransform="matrix(0.894 0 0 -0.8699 -666.8916 328.1647)">
	<stop  offset="0" style="stop-color:#FFFFFF"/>
	<stop  offset="1" style="stop-color:#FFFFFF;stop-opacity:0.6471"/>
</linearGradient>
<path id="path3638_1_" sodipodi:type="arc" sodipodi:ry="104.77346" sodipodi:rx="233.81876" sodipodi:cy="470.24246" sodipodi:cx="805.01617" opacity="0.385" fill="url(#path3638_2_)" enable-background="new    " d="
	M-2.503,65.909"/>
</svg>
